<?xml version="1.0" encoding="UTF-8"?>
<svg width="800px" height="1000px" viewBox="0 0 800 1000" version="1.1" xmlns="http://www.w3.org/2000/svg" xmlns:xlink="http://www.w3.org/1999/xlink">
    <!-- Generator: Sketch 51.1 (57501) - http://www.bohemiancoding.com/sketch -->
    <title>rocking chair_DL</title>
    <desc>Created with Sketch.</desc>
    <defs></defs>
    <g id="rocking-chair_DL" stroke="none" stroke-width="1" fill="none" fill-rule="evenodd">
        <g id="logo-footer" transform="translate(441.000000, 732.000000)">
            <g>
                <path d="M110.812545,8.25651402 C110.904572,8.56348079 110.810146,8.81874549 110.573746,9.09365441 C110.548096,9.12348237 110.524607,9.14951827 110.482164,9.19539003 C110.410296,9.27306357 110.388406,9.29969141 110.394575,9.28699974 C110.158488,9.77253772 109.949286,10.3963755 109.78094,11.1092981 C109.323962,13.0450464 110.241419,14.6677006 112.137009,15.2172501 C114.194676,15.8138908 116.608374,14.6870388 117.500673,12.7424366 C118.556971,10.4412591 118.361229,8.87677042 116.832238,7.67717368 C114.960938,6.20902274 112.357851,6.27012948 111.072216,7.83985899 L110.795491,8.1777337 C110.794947,8.20051389 110.804056,8.228204 110.812545,8.25651402 Z M110.106083,6.26944954 C110.423589,5.88663707 110.955421,5.49967933 111.419965,5.30848582 C112.37958,4.91358991 113.68037,4.90617957 115.133698,5.23840657 C117.932917,5.87841333 120.108577,8.22064492 119.995807,10.6570534 C119.760531,15.7499925 113.426094,19.0246323 109.732148,15.5763745 C107.943744,13.9068501 107.553768,11.8021869 108.499361,9.2850154 C108.62423,8.95356867 108.851111,8.49010331 109.049811,8.18524994 C109.270059,7.84733807 109.481086,7.64146186 109.750777,7.55562368 C109.778602,7.54676715 109.806094,7.5393618 109.833231,7.53336632 C109.647627,7.16965375 109.747904,6.70130236 110.106083,6.26944954 Z" id="Fill-4" fill="#000000" fill-rule="nonzero"></path>
                <path d="M116,2.36382675 C116.035222,2.23410526 116.077249,2.03952302 116.14169,1.8509661 C116.280178,1.44230796 116.378641,1.03435869 116.377039,0.600890425 C116.376639,0.410561355 116.256963,0.110004457 116.623996,0.0412449782 C116.938196,-0.017590452 117.272408,-0.0501980398 117.512961,0.20711836 C117.655051,0.358460099 117.796741,0.518308165 117.8896,0.694814455 C118.216208,1.3175485 117.776729,2.53572545 117.114308,2.89086461 C116.612389,3.15987721 116.012808,2.911776 116,2.36382675" id="Fill-103" fill="#000000" fill-rule="nonzero"></path>
                <path d="M113.597281,1.30015424 C113.547641,1.6054057 113.484683,1.90995301 113.451993,2.21696486 C113.409214,2.61727733 113.068594,2.79366831 112.724342,2.93802021 C112.426905,3.06335991 112.146418,3.01090032 112.073774,2.6669203 C111.908307,1.88389925 112.059649,1.1040469 112.154086,0.329475719 C112.197269,-0.0278832593 112.773982,-0.106396611 113.167067,0.152380579 C113.512933,0.380527 113.619074,0.676272361 113.597281,1.30015424" id="Fill-107" fill="#000000" fill-rule="nonzero"></path>
                <path d="M112.19066,11.6823452 C110.632914,12.6206952 108.591708,13.9682577 107.051494,14.9237702 C106.603919,15.2015633 106.260092,15.3386205 105.847581,15.6483439 C105.453117,15.9444969 105.00264,16.1407116 104.673147,15.8744932 C104.334372,15.6006913 103.968388,15.4738054 104.253536,15.0032335 C104.507231,14.584149 104.804932,14.5525935 105.343775,14.3418539 C106.408054,13.9255633 108.032176,12.8044553 108.976827,12.2352987 C109.267132,12.0600815 109.780582,11.6912496 110.031699,11.4841022 C110.690685,10.9400907 110.546085,10.7856194 109.803565,10.2635599 C108.494872,9.34277154 106.87805,8.31351987 105.559045,7.40151231 C105.221301,7.16842154 104.87376,6.94291422 104.554064,6.69585398 C103.681603,6.022525 103.837029,5.29651112 105.037953,5.02270928 C105.314335,4.95964705 105.519044,5.02949445 105.664454,5.21269422 C106.875175,6.74015718 109.059218,7.93310366 110.770108,9.0590438 C111.354328,9.44340412 111.803432,9.85804585 112.62433,10.0292717 C113.067264,10.1214703 112.94712,10.4970498 112.994043,10.9392837 C113.057467,11.2214672 112.602656,11.4340876 112.19066,11.6823452 Z" id="chevron" fill="#000000" fill-rule="nonzero" transform="translate(108.500000, 10.500000) rotate(-2.000000) translate(-108.500000, -10.500000) "></path>
                <path d="M4.80555555,7.71270718 L2.78703703,7.71270718 L2.78703703,12.9005525 L2.01851852,12.9005525 L2.01851852,7.71270718 L0,7.71270718 L0,7.09944751 L4.80555555,7.09944751 L4.80555555,7.71270718 Z M9.97657951,10.2403315 L6.8654684,10.2403315 L6.8654684,12.9005525 L6.09694989,12.9005525 L6.09694989,7.09944751 L6.8654684,7.09944751 L6.8654684,9.62707182 L9.97657951,9.62707182 L9.97657951,7.09944751 L10.745098,7.09944751 L10.745098,12.9005525 L9.97657951,12.9005525 L9.97657951,10.2403315 Z M12.6568627,7.09944751 L16.1846405,7.09944751 L16.1846405,7.71270718 L13.4253813,7.71270718 L13.4253813,9.61049724 L15.953159,9.61049724 L15.953159,10.2237569 L13.4253813,10.2237569 L13.4253813,12.2872928 L16.2309368,12.2872928 L16.2309368,12.9005525 L12.6568627,12.9005525 L12.6568627,7.09944751 Z M20.7674291,7.09944751 C20.8847137,7.08287284 21.0158852,7.07044203 21.1609477,7.0621547 C21.3060102,7.05386736 21.4572432,7.04834254 21.6146514,7.04558011 C21.7720596,7.04281768 21.926379,7.04005525 22.0776143,7.03729282 C22.2288497,7.03453039 22.3692805,7.03314917 22.4989106,7.03314917 C23.0174317,7.03314917 23.4665011,7.10497164 23.8461328,7.24861878 C24.2257645,7.39226593 24.539033,7.59254015 24.7859476,7.84944751 C25.0328623,8.10635488 25.2165027,8.41436285 25.3368736,8.77348066 C25.4572445,9.13259848 25.5174291,9.52762215 25.5174291,9.95856354 C25.5174291,10.3508307 25.4603309,10.7278988 25.3461328,11.089779 C25.2319348,11.4516593 25.0513808,11.7720981 24.8044662,12.051105 C24.5575516,12.3301119 24.236567,12.5538666 23.8415032,12.7223757 C23.4464394,12.8908848 22.9680495,12.9751381 22.406318,12.9751381 C22.3075521,12.9751381 22.179467,12.9737569 22.0220588,12.9709945 C21.8646506,12.968232 21.7026152,12.9627072 21.5359477,12.9544199 C21.3692802,12.9461326 21.2149607,12.9392266 21.0729847,12.9337017 C20.9310087,12.9281767 20.8291578,12.9198895 20.7674291,12.9088398 L20.7674291,7.09944751 Z M22.5174291,7.64640884 L22.2535402,7.64640884 C22.1578608,7.64640884 22.0637259,7.64917122 21.9711328,7.65469613 C21.8785398,7.66022104 21.7936641,7.66574581 21.7165032,7.67127072 C21.6393424,7.67679563 21.5791578,7.6823204 21.5359477,7.6878453 L21.5359477,12.3287293 C21.566812,12.3342542 21.6254534,12.3383978 21.7118736,12.3411602 C21.7982938,12.3439227 21.887799,12.3466851 21.9803921,12.3494475 C22.0729851,12.3522099 22.1624904,12.3549724 22.2489106,12.3577348 C22.3353309,12.3604972 22.3939723,12.3618785 22.4248365,12.3618785 C22.8569374,12.3618785 23.2195881,12.2955808 23.5127995,12.1629834 C23.8060109,12.0303861 24.0405762,11.852211 24.2165032,11.628453 C24.3924302,11.404695 24.5174286,11.1477915 24.5915032,10.8577348 C24.6655778,10.5676781 24.7026143,10.2679574 24.7026143,9.95856354 C24.7026143,9.68784397 24.6686642,9.41574724 24.6007625,9.14226519 C24.5328607,8.86878315 24.4155783,8.62154807 24.2489106,8.40055249 C24.0822429,8.17955691 23.8584801,7.99861948 23.5776143,7.85773481 C23.2967486,7.71685014 22.9433571,7.64640884 22.5174291,7.64640884 Z M26.892157,10 C26.892157,9.03314434 27.1205495,8.29143904 27.5773422,7.77486188 C28.0341344,7.25828471 28.6853622,7 29.5310459,7 C29.9878381,7 30.3828957,7.07182247 30.7162311,7.21546961 C31.0495659,7.35911676 31.3257979,7.56215336 31.5449348,7.82458564 C31.7640716,8.08701791 31.9261071,8.40193186 32.0310459,8.76933702 C32.1359847,9.13674217 32.1884533,9.54695907 32.1884533,10 C32.1884533,10.9668557 31.9585171,11.708561 31.4986385,12.2251381 C31.0387594,12.7417153 30.3829019,13 29.5310459,13 C29.080426,13 28.6899981,12.9281775 28.3597496,12.7845304 C28.0295006,12.6408832 27.7548124,12.4378466 27.5356755,12.1754144 C27.3165387,11.9129821 27.1545032,11.5980681 27.0495644,11.230663 C26.9446256,10.8632578 26.892157,10.4530409 26.892157,10 Z M27.7069718,10 C27.7069718,10.3204436 27.7424651,10.624308 27.8134533,10.9116022 C27.884441,11.1988965 27.9940078,11.4516564 28.142157,11.6698895 C28.2903057,11.8881227 28.4801184,12.0621541 28.7116014,12.191989 C28.943084,12.3218238 29.2162295,12.3867403 29.5310459,12.3867403 C30.1051225,12.3867403 30.5557352,12.1919909 30.8828977,11.8024862 C31.2100598,11.4129815 31.3736385,10.8121587 31.3736385,10 C31.3736385,9.68508131 31.3381447,9.38259816 31.267157,9.09254144 C31.1961688,8.80248476 31.0850587,8.54834365 30.9338237,8.3301105 C30.7825881,8.11187735 30.5912321,7.93784595 30.3597496,7.80801105 C30.1282666,7.67817615 29.8520351,7.61325967 29.5310459,7.61325967 C28.9631416,7.61325967 28.5171585,7.80800912 28.1930829,8.19751381 C27.8690068,8.58701851 27.7069718,9.18784125 27.7069718,10 Z M33.5631807,10 C33.5631807,9.03314434 33.7915737,8.29143904 34.2483658,7.77486188 C34.7051585,7.25828471 35.3563864,7 36.2020695,7 C36.6588622,7 37.0539198,7.07182247 37.3872547,7.21546961 C37.7205896,7.35911676 37.9968216,7.56215336 38.2159584,7.82458564 C38.4350953,8.08701791 38.5971308,8.40193186 38.7020695,8.76933702 C38.8070083,9.13674217 38.8594769,9.54695907 38.8594769,10 C38.8594769,10.9668557 38.6295412,11.708561 38.1696621,12.2251381 C37.7097835,12.7417153 37.053926,13 36.2020695,13 C35.7514502,13 35.3610217,12.9281775 35.0307732,12.7845304 C34.7005248,12.6408832 34.425836,12.4378466 34.2066992,12.1754144 C33.9875623,11.9129821 33.8255268,11.5980681 33.7205881,11.230663 C33.6156493,10.8632578 33.5631807,10.4530409 33.5631807,10 Z M34.3779955,10 C34.3779955,10.3204436 34.4134893,10.624308 34.484477,10.9116022 C34.5554651,11.1988965 34.665032,11.4516564 34.8131807,11.6698895 C34.9613298,11.8881227 35.1511426,12.0621541 35.3826251,12.191989 C35.6141076,12.3218238 35.8872532,12.3867403 36.2020695,12.3867403 C36.7761467,12.3867403 37.2267594,12.1919909 37.5539214,11.8024862 C37.8810834,11.4129815 38.0446621,10.8121587 38.0446621,10 C38.0446621,9.68508131 38.0091688,9.38259816 37.9381806,9.09254144 C37.867193,8.80248476 37.7560829,8.54834365 37.6048473,8.3301105 C37.4536122,8.11187735 37.2622558,7.93784595 37.0307732,7.80801105 C36.7992907,7.67817615 36.5230587,7.61325967 36.2020695,7.61325967 C35.6341657,7.61325967 35.1881822,7.80800912 34.8641066,8.19751381 C34.540031,8.58701851 34.3779955,9.18784125 34.3779955,10 Z M40.5027233,7.09944751 C40.6200078,7.08287284 40.7511791,7.07044203 40.8962419,7.0621547 C41.0413041,7.05386736 41.1925371,7.04834254 41.3499456,7.04558011 C41.5073535,7.04281768 41.6616729,7.04005525 41.8129085,7.03729282 C41.9641436,7.03453039 42.1045747,7.03314917 42.2342048,7.03314917 C42.7527259,7.03314917 43.2017954,7.10497164 43.581427,7.24861878 C43.9610587,7.39226593 44.2743267,7.59254015 44.5212419,7.84944751 C44.7681565,8.10635488 44.9517969,8.41436285 45.0721678,8.77348066 C45.1925387,9.13259848 45.2527233,9.52762215 45.2527233,9.95856354 C45.2527233,10.3508307 45.1956251,10.7278988 45.081427,11.089779 C44.967229,11.4516593 44.786675,11.7720981 44.5397604,12.051105 C44.2928452,12.3301119 43.9718612,12.5538666 43.5767974,12.7223757 C43.1817336,12.8908848 42.7033432,12.9751381 42.1416122,12.9751381 C42.0428463,12.9751381 41.9147609,12.9737569 41.757353,12.9709945 C41.5999445,12.968232 41.437909,12.9627072 41.2712419,12.9544199 C41.1045742,12.9461326 40.9502547,12.9392266 40.8082789,12.9337017 C40.6663026,12.9281767 40.5644517,12.9198895 40.5027233,12.9088398 L40.5027233,7.09944751 Z M42.2527233,7.64640884 L41.9888344,7.64640884 C41.8931549,7.64640884 41.7990201,7.64917122 41.706427,7.65469613 C41.6138339,7.66022104 41.5289584,7.66574581 41.4517974,7.67127072 C41.3746364,7.67679563 41.3144517,7.6823204 41.2712419,7.6878453 L41.2712419,12.3287293 C41.3021061,12.3342542 41.3607475,12.3383978 41.4471678,12.3411602 C41.533588,12.3439227 41.6230932,12.3466851 41.7156863,12.3494475 C41.8082794,12.3522099 41.8977846,12.3549724 41.9842048,12.3577348 C42.0706251,12.3604972 42.1292665,12.3618785 42.1601307,12.3618785 C42.5922316,12.3618785 42.9548823,12.2955808 43.2480937,12.1629834 C43.5413051,12.0303861 43.7758705,11.852211 43.9517974,11.628453 C44.1277244,11.404695 44.2527228,11.1477915 44.3267974,10.8577348 C44.400872,10.5676781 44.4379085,10.2679574 44.4379085,9.95856354 C44.4379085,9.68784397 44.4039584,9.41574724 44.3360567,9.14226519 C44.2681549,8.86878315 44.150872,8.62154807 43.9842048,8.40055249 C43.8175371,8.17955691 43.5937743,7.99861948 43.3129085,7.85773481 C43.0320428,7.71685014 42.6786513,7.64640884 42.2527233,7.64640884 Z M50.7293025,12.9005525 L46.8959692,12.9005525 L46.8959692,7.09944751 L47.6644877,7.09944751 L47.6644877,12.2872928 L50.7293025,12.2872928 L50.7293025,12.9005525 Z M52.0206971,7.09944751 L55.5484749,7.09944751 L55.5484749,7.71270718 L52.7892156,7.71270718 L52.7892156,9.61049724 L55.3169934,9.61049724 L55.3169934,10.2237569 L52.7892156,10.2237569 L52.7892156,12.2872928 L55.5947712,12.2872928 L55.5947712,12.9005525 L52.0206971,12.9005525 L52.0206971,7.09944751 Z M63.9645968,12.9005525 L60.1312634,12.9005525 L60.1312634,7.09944751 L60.8997819,7.09944751 L60.8997819,12.2872928 L63.9645968,12.2872928 L63.9645968,12.9005525 Z M65.4319172,7.09944751 L66.2004357,7.09944751 L66.2004357,12.9005525 L65.4319172,12.9005525 L65.4319172,7.09944751 Z M72.1955335,8.42541436 C72.1955335,8.5635366 72.1708426,8.70441915 72.1214594,8.8480663 C72.0720767,8.99171344 71.9980031,9.12569001 71.8992372,9.25 C71.8004712,9.37431004 71.6739296,9.48342495 71.5196075,9.57734807 C71.365286,9.67127118 71.1831888,9.74309369 70.9733113,9.79281768 L70.9733113,9.82596685 C71.1584975,9.8535913 71.3359651,9.90055216 71.5057187,9.96685083 C71.6754728,10.0331495 71.8251626,10.1243088 71.9547927,10.2403315 C72.0844234,10.3563542 72.1893606,10.4972367 72.2696075,10.6629834 C72.349855,10.8287301 72.3899779,11.0248607 72.3899779,11.2513812 C72.3899779,11.5497252 72.3205345,11.8080099 72.1816446,12.0262431 C72.0427552,12.2444762 71.8606585,12.4226512 71.6353483,12.5607735 C71.4100386,12.6988957 71.1523251,12.8011047 70.8622001,12.8674033 C70.5720757,12.933702 70.2757819,12.9668508 69.9733113,12.9668508 L69.6029409,12.9668508 C69.4609651,12.9668508 69.3128185,12.9627072 69.1584964,12.9544199 C69.0041749,12.9461326 68.8498555,12.935083 68.6955335,12.9212707 C68.541212,12.9074585 68.4054111,12.8867405 68.2881261,12.859116 L68.2881261,7.14917127 C68.5165227,7.11602192 68.7819517,7.08839788 69.0844224,7.06629834 C69.386893,7.0441988 69.7171369,7.03314917 70.0751631,7.03314917 C70.3159054,7.03314917 70.5612732,7.05110479 70.8112742,7.08701657 C71.0612758,7.12292836 71.288125,7.19198844 71.4918298,7.2941989 C71.6955345,7.39640935 71.8637428,7.53867311 71.9964594,7.72099448 C72.1291765,7.90331584 72.1955335,8.13812012 72.1955335,8.42541436 Z M70.0473853,12.3701657 C70.2449172,12.3701657 70.4362737,12.3494477 70.6214594,12.308011 C70.8066456,12.2665744 70.9702243,12.2002767 71.1122001,12.109116 C71.2541765,12.0179553 71.3668298,11.906078 71.4501631,11.7734807 C71.533497,11.6408833 71.5751631,11.4834263 71.5751631,11.301105 C71.5751631,11.0745845 71.5242377,10.8922659 71.4223853,10.7541436 C71.320533,10.6160214 71.1878185,10.5082877 71.0242372,10.4309392 C70.8606564,10.3535908 70.677016,10.3011051 70.4733113,10.2734807 C70.2696065,10.2458562 70.0659049,10.2320442 69.8622001,10.2320442 L69.0566446,10.2320442 L69.0566446,12.3121547 C69.099855,12.3232045 69.1615829,12.3314917 69.2418298,12.3370166 C69.3220772,12.3425415 69.4084964,12.3480663 69.501089,12.3535912 C69.5936821,12.3591161 69.6893601,12.3632597 69.7881261,12.3660221 C69.886892,12.3687845 69.9733113,12.3701657 70.0473853,12.3701657 Z M69.5381261,9.6519337 C69.6430649,9.6519337 69.769607,9.64917132 69.9177557,9.64364641 C70.0659049,9.6381215 70.1893601,9.6298343 70.2881261,9.61878453 C70.4362752,9.57458541 70.5751626,9.52071855 70.7047927,9.45718232 C70.8344234,9.39364609 70.9501626,9.31906119 71.052015,9.23342541 C71.1538673,9.14778964 71.2341137,9.04834309 71.2927557,8.93508287 C71.3513982,8.82182265 71.3807187,8.69889567 71.3807187,8.56629834 C71.3807187,8.38397698 71.3421389,8.23342601 71.2649779,8.11464088 C71.1878174,7.99585576 71.0844234,7.90055285 70.9547927,7.82872928 C70.8251626,7.75690571 70.677016,7.70580124 70.5103483,7.67541436 C70.3436811,7.64502749 70.1739296,7.62983425 70.001089,7.62983425 C69.7973843,7.62983425 69.610658,7.63397785 69.4409038,7.64226519 C69.2711502,7.65055253 69.1430649,7.66298333 69.0566446,7.67955801 L69.0566446,9.6519337 L69.5381261,9.6519337 Z M74.0332243,7.15745856 C74.2677932,7.11878435 74.5378524,7.08839788 74.8434095,7.06629834 C75.1489666,7.0441988 75.428285,7.03314917 75.6813725,7.03314917 C75.9653246,7.03314917 76.2353838,7.0607732 76.4915576,7.1160221 C76.747732,7.17127099 76.9730381,7.26243029 77.1674836,7.38950276 C77.361929,7.51657523 77.5177917,7.68231943 77.6350762,7.88674033 C77.7523606,8.09116123 77.8110021,8.33977753 77.8110021,8.63259669 C77.8110021,9.08563762 77.6721147,9.45303725 77.3943354,9.73480663 C77.1165561,10.016576 76.7647078,10.2044194 76.3387799,10.2983425 L76.7832243,10.6049724 L78.3943354,12.9005525 L77.4961873,12.9005525 L75.7091502,10.3977901 L74.8017428,10.2734807 L74.8017428,12.9005525 L74.0332243,12.9005525 L74.0332243,7.15745856 Z M75.699891,7.62983425 L75.449891,7.62983425 C75.3634707,7.62983425 75.2801384,7.63259664 75.199891,7.63812155 C75.1196436,7.64364645 75.0440273,7.64917122 74.9730391,7.65469613 C74.902051,7.66022104 74.8449527,7.66850824 74.8017428,7.67955801 L74.8017428,9.81767956 L75.5239651,9.81767956 C75.949893,9.81767956 76.3017413,9.72375783 76.5795206,9.5359116 C76.8572999,9.34806538 76.9961873,9.0552506 76.9961873,8.65745856 C76.9961873,8.35911455 76.8819908,8.11326064 76.6535947,7.9198895 C76.4251986,7.72651837 76.1073004,7.62983425 75.699891,7.62983425 Z M82.722767,11.2928177 L80.3338781,11.2928177 L79.68573,12.9005525 L78.9264707,12.9005525 L81.3801744,7.00828729 L81.7320263,7.00828729 L84.1949892,12.9005525 L83.3894337,12.9005525 L82.722767,11.2928177 Z M80.5838781,10.6961326 L82.4912855,10.6961326 L81.7690633,8.93093923 L81.5375818,8.05248619 L81.5283226,8.05248619 L81.2968411,8.94751381 L80.5838781,10.6961326 Z M85.3937907,7.15745856 C85.6283596,7.11878435 85.8984187,7.08839788 86.2039758,7.06629834 C86.5095329,7.0441988 86.7888514,7.03314917 87.0419388,7.03314917 C87.325891,7.03314917 87.5959501,7.0607732 87.852124,7.1160221 C88.1082984,7.17127099 88.3336044,7.26243029 88.5280499,7.38950276 C88.7224954,7.51657523 88.878358,7.68231943 88.9956425,7.88674033 C89.112927,8.09116123 89.1715684,8.33977753 89.1715684,8.63259669 C89.1715684,9.08563762 89.0326811,9.45303725 88.7549018,9.73480663 C88.477123,10.016576 88.1252742,10.2044194 87.6993462,10.2983425 L88.1437906,10.6049724 L89.7549018,12.9005525 L88.8567536,12.9005525 L87.0697166,10.3977901 L86.1623092,10.2734807 L86.1623092,12.9005525 L85.3937907,12.9005525 L85.3937907,7.15745856 Z M87.0604573,7.62983425 L86.8104573,7.62983425 C86.7240371,7.62983425 86.6407047,7.63259664 86.5604573,7.63812155 C86.4802099,7.64364645 86.4045936,7.64917122 86.3336055,7.65469613 C86.2626178,7.66022104 86.2055196,7.66850824 86.1623092,7.67955801 L86.1623092,9.81767956 L86.8845314,9.81767956 C87.3104594,9.81767956 87.6623081,9.72375783 87.9400869,9.5359116 C88.2178663,9.34806538 88.3567536,9.0552506 88.3567536,8.65745856 C88.3567536,8.35911455 88.2425571,8.11326064 88.014161,7.9198895 C87.7857649,7.72651837 87.4678668,7.62983425 87.0604573,7.62983425 Z M92.1111111,10.5966851 L89.9722222,7.09944751 L90.8703704,7.09944751 L92.3888889,9.63535912 L92.5462963,10.140884 L92.5555556,10.140884 L92.7222222,9.61878453 L94.1759259,7.09944751 L95,7.09944751 L92.8796296,10.5883978 L92.8796296,12.9005525 L92.1111111,12.9005525 L92.1111111,10.5966851 Z" id="the-Doodle-Library" fill="#666666" fill-rule="nonzero" opacity="0.595278533"></path>
            </g>
        </g>
        <path d="M512.989146,587.163361 C512.980587,587.224097 512.973454,587.283314 512.966321,587.342531 C512.960614,587.378972 512.957761,587.413895 512.953481,587.448818 C512.963468,587.354678 512.976307,587.25902 512.989146,587.163361 M513.168898,585.725445 C513.171751,585.704187 513.174604,585.684448 513.177457,585.664709 L513.114687,586.162741 C513.133233,586.016976 513.150352,585.869692 513.168898,585.725445 M505.068682,507.329399 C504.997352,507.906388 504.926022,508.481858 504.854693,509.058846 C504.926022,508.484895 504.995926,507.906388 505.068682,507.329399 M511.244937,646.220327 C517.492532,642.060525 523.81407,637.449021 530.204889,632.352259 C542.740387,622.355036 568.628433,595.585409 573.915349,608.397254 C582.156169,628.364848 498.125687,684.515946 439.862833,691.744037 C371.361949,700.242259 359.143458,691.956567 309.313519,674.252415 C299.911186,670.911846 240.014291,636.148323 255.624254,622.433454 C259.780095,618.782143 270.383636,625.726479 286.411142,635.898833 C287.006539,634.520474 287.648723,633.135267 288.489129,631.910322 C289.181028,630.907167 289.932844,629.898605 290.847293,629.073909 C291.536339,628.452007 292.621979,627.671926 293.729018,627.102751 C294.493674,625.262733 295.393856,623.475442 296.375355,621.727357 C297.911799,618.993694 299.38262,616.230287 300.750726,613.415506 C302.290024,609.688152 303.529736,605.859401 305.013397,602.102303 C307.932213,594.713841 311.381724,587.574139 314.859767,580.412806 C318.092434,573.743586 321.268038,567.036512 324.750361,560.476801 C325.416129,559.222291 326.084211,557.968497 326.752,556.714343 C326.294266,555.081586 326.25915,553.305189 326.751448,551.517923 C327.610216,548.401732 330.003873,545.907415 332.96793,544.827067 C333.721408,543.33558 334.463106,541.838907 335.188768,540.335298 C337.414304,535.716602 339.562418,531.065112 341.725251,526.418962 C341.717198,525.654023 341.744536,524.892853 341.818257,524.138682 C342.002288,522.232749 342.136388,520.188436 342.659949,518.326727 C343.729896,514.547673 345.541674,511.226556 348.299285,508.419014 C349.737294,506.958179 351.163891,505.487358 352.696056,504.122105 C356.385234,500.8338 360.308375,498.197449 364.833539,496.235879 C367.502702,495.083189 370.188983,493.996122 373.080694,493.583836 C375.638582,493.215774 378.200749,492.914762 380.758637,492.583792 C386.086975,491.881906 391.396768,491.271323 396.770757,491.048774 C402.064857,490.824798 407.391769,491.037361 412.680162,491.110117 C419.941539,491.209979 427.202916,491.332666 434.458586,491.538096 C435.471766,491.566553 436.485023,491.595189 437.498336,491.622991 C438.676151,490.441691 440.15405,489.559491 441.857691,489.155567 C443.830674,488.687644 445.825056,488.436563 447.837984,488.185482 C449.0135,488.035689 450.23324,488.012863 451.414462,488.129844 C451.676955,488.15695 451.938023,488.185482 452.19909,488.21544 C452.535767,487.619123 452.871017,487.025659 453.214827,486.436474 C454.518736,484.189585 455.839764,481.944121 457.172205,479.710071 C459.58458,475.647124 462.025487,471.59559 464.477807,467.549762 C468.439465,461.030215 472.40683,454.510669 476.475484,448.05104 C480.994942,440.868126 485.625674,433.769381 490.284939,426.66921 C494.218066,420.673225 498.420819,414.821325 502.666371,409.043609 C504.734936,406.226081 506.814914,403.417112 508.930556,400.636675 C508.553935,399.198666 508.553935,397.669355 508.951955,396.225639 C509.486929,394.264068 510.936351,392.074243 512.836578,391.171207 C514.134781,390.553491 515.432984,389.945761 516.726907,389.320911 C516.75401,389.307722 516.781083,389.294457 516.808129,389.28112 C517.612638,382.75982 518.488853,376.252215 519.682585,369.791281 C520.487115,365.44225 524.345635,362.50133 528.340523,362.361825 C529.121822,362.334542 529.908256,362.413431 530.678863,362.61138 C535.657891,363.87934 538.43555,369.147048 537.473447,374.338725 C536.147235,381.530383 535.200908,388.768029 534.322437,396.027614 C532.393371,411.994625 530.799357,427.990959 529.21696,443.992963 C527.614305,460.150646 525.77508,476.278607 524.211026,492.43798 C523.521503,500.652694 522.817723,508.867906 521.949243,517.067599 C521.186347,524.203122 520.380574,531.337103 519.656491,538.480387 C519.064604,546.261725 518.647451,554.059751 518.058522,561.844024 C517.416873,570.325985 516.245898,578.733753 515.465265,587.200816 C515.061018,591.730342 515.053383,596.212592 515.096395,600.755366 C515.144076,605.472698 514.752373,610.238799 514.40977,614.939373 C514.01846,620.329899 513.176764,625.617646 512.594614,630.979893 C512.162783,634.923925 511.758625,638.883703 511.379917,642.836516 C511.307015,643.964912 511.265395,645.092672 511.244937,646.220327 Z M492.918726,657.275461 C492.808557,654.730773 492.770655,652.176125 492.693555,649.639251 C492.55461,645.210738 492.926774,640.86617 493.386852,636.463837 C493.796507,632.538811 494.109578,628.586771 494.659748,624.679628 C495.1044,621.511518 495.593991,618.36311 495.94544,615.183062 C496.233658,611.377745 496.510783,607.540909 496.599081,603.733457 C496.68695,599.872844 496.552618,596.026068 496.825042,592.177241 C497.474215,583.052346 498.671621,574.01162 499.629127,564.927615 C499.979827,560.215336 500.255907,555.494666 500.558408,550.776475 C498.167927,550.830993 495.804964,550.925947 493.430714,551.141302 C490.474805,551.639184 487.533163,552.231222 484.568695,552.654921 C481.066401,553.14995 477.555547,553.557956 474.047546,553.991642 C473.81501,554.037293 473.581049,554.082944 473.34566,554.127169 C465.967303,555.553765 458.75015,557.993245 451.294757,559.041794 C446.618373,559.699455 441.960535,560.284359 437.245633,560.579665 C433.562161,560.813627 429.867276,560.907782 426.178097,560.986245 C421.397572,561.091813 416.609914,561.053295 411.823682,561.020483 C402.199862,560.944874 392.570335,560.869264 383.002151,561.912106 C380.494194,562.288728 377.996224,562.688175 375.489694,563.064796 C372.217081,563.552692 368.940189,563.845144 365.659017,564.191807 C365.622047,564.197801 365.585077,564.203808 365.548107,564.20983 C365.522424,564.890352 365.498559,565.57092 365.477447,566.251533 C365.527108,573.370567 366.198391,580.480733 366.147596,587.599346 C366.083927,595.236926 365.555861,602.837047 365.332099,610.466357 C365.363029,615.905898 365.587679,621.318804 366.009686,626.753317 C366.426393,632.205641 366.779369,637.652116 366.872218,643.121225 C366.978351,649.194389 366.647842,655.275802 366.506683,661.343588 C366.4122,665.500961 366.398378,669.687908 366.213588,673.849413 C402.116332,683.275367 445.101252,683.147436 492.918726,657.275461 Z M346.603163,667.579963 C346.674171,665.010399 346.810086,662.440008 346.86696,659.891166 C346.948091,656.213852 347.036805,652.540447 347.118262,648.866236 C347.121602,644.216768 347.013901,639.561718 346.656772,634.921903 C346.268353,629.943438 345.851722,624.969507 345.608067,619.989944 C345.136803,610.156182 345.906514,600.378642 346.285213,590.579459 C346.28297,585.04436 345.988785,579.543082 345.795398,574.004545 C345.703799,571.328335 345.69365,568.657654 345.731959,565.988895 C345.202907,565.926851 344.674576,565.855857 344.147257,565.778744 C338.25378,577.065887 332.736703,588.521444 327.303969,600.017581 C326.211196,602.549802 325.131262,605.083375 324.199694,607.673731 C323.085522,610.779184 322.04268,613.915731 320.89427,617.01172 C319.563255,620.580895 317.941215,624.045969 316.175089,627.442093 C315.129393,629.448402 313.903947,631.377649 312.861105,633.38531 C312.474497,634.630466 312.307585,635.886437 311.950936,637.149167 C311.611406,638.348356 311.142056,639.609735 310.37312,640.623705 C309.448686,642.10275 308.20612,643.280307 306.645423,644.157729 C306.176073,644.521406 305.659645,644.810726 305.100419,645.028391 C304.980585,645.274448 304.865031,645.519153 304.749476,645.76521 C304.591412,646.149552 304.438558,646.535063 304.287903,646.920955 C316.494009,654.108297 330.682232,661.592952 346.603163,667.579963 Z M512.860116,425.096425 C510.885145,427.964382 508.937466,430.851535 506.974692,433.729437 C503.112895,439.391598 499.41801,445.193567 495.81728,451.02692 C491.68871,457.714805 487.564419,464.401263 483.574229,471.171891 C479.700268,477.759032 475.777621,484.329481 472.08513,491.017852 C474.873191,490.824159 477.660553,490.615108 480.449207,490.412512 C488.456693,489.827607 496.492712,489.783383 504.517318,489.733452 L504.575808,489.733452 C505.179148,489.733452 505.770642,489.792886 506.344878,489.906059 C506.962359,483.110688 507.611027,476.318864 508.345768,469.535279 C509.945935,454.734439 511.385316,439.91182 512.860116,425.096425 Z M363.628925,521.466865 C363.942253,522.931015 363.892955,524.395961 363.481032,525.85986 C363.147208,526.60479 362.811958,527.34972 362.48384,528.098706 C362.473765,528.119821 362.463692,528.140938 362.453621,528.162054 C362.483679,528.527584 362.518235,528.893499 362.556691,529.260163 C363.311361,533.893749 364.120241,538.541601 364.521115,543.219411 C364.531951,543.349555 364.543067,543.479845 364.554375,543.610263 C366.907052,543.361196 369.262214,543.154278 371.615057,542.884161 C377.920614,541.979699 384.209052,540.962535 390.580232,540.724294 C397.017036,540.484625 403.503771,540.317714 409.944854,540.490332 C416.147696,540.66295 422.350538,540.963962 428.55766,540.919737 C432.124152,540.896912 435.684937,540.835568 439.251428,540.685775 C441.80361,540.575928 444.335818,540.320567 446.868027,540.026688 C452.551588,539.029497 458.132434,537.701335 463.754651,536.411692 C469.533794,535.084957 475.45845,534.655552 481.330321,533.970785 C484.149276,533.507141 486.965378,533.013539 489.795745,532.605532 C493.546268,532.053439 497.252566,531.886528 501.0359,531.808065 C501.095817,531.806638 501.154307,531.806638 501.214225,531.806638 C501.524109,531.806638 501.830764,531.823163 502.13343,531.855337 C502.932809,524.176236 503.79734,516.507036 504.627997,508.82993 C504.591148,508.8306 504.554255,508.831057 504.517318,508.8313 C497.211717,508.875525 489.923235,509.025317 482.62334,509.387673 C476.125193,509.71151 469.638458,510.413396 463.14031,510.792871 C453.221184,511.377775 443.274953,511.243675 433.338708,511.103869 C428.401257,511.036819 423.469512,510.971195 418.543474,510.986888 C414.992675,510.9983 411.44901,511.026832 407.905344,511.053938 C404.199046,511.08247 400.477055,511.026832 396.770757,511.220849 C390.565062,511.5561 384.3665,512.292224 378.197896,513.081131 C376.501673,513.37929 374.885339,513.800136 373.271858,514.365068 C371.471493,515.20676 369.736752,516.152594 368.087606,517.272472 C366.544933,518.576855 365.030869,519.985838 363.628925,521.466865 Z M364.065936,523.715268 L363.831974,524.268787 C363.903304,524.081903 363.981767,523.896446 364.065936,523.715268 Z M466.729816,238.036502 C468.630043,237.568578 470.53027,237.12776 472.453322,236.744005 C474.480516,236.337425 476.581892,236.017867 478.767438,236.019294 C481.396656,236.025 483.843269,236.811055 486.217126,237.813953 C487.513902,238.176308 488.695124,238.742667 489.757939,239.510176 C490.662401,239.515882 491.569716,239.56724 492.481311,239.674235 C494.013476,239.858266 495.679741,240.025177 497.173388,240.471702 C498.749777,240.945332 500.216318,241.535943 501.725657,242.193604 C503.604485,243.006764 505.426249,243.915506 507.148151,245.029678 C511.261029,247.683148 515.289738,250.791702 518.83911,254.179869 C520.428339,255.696341 522.071778,257.172868 523.571131,258.783496 C526.731042,262.154544 529.728322,265.776672 532.280503,269.632763 C537.095267,276.922672 540.82867,285.236876 542.166817,293.907731 C542.65186,297.061936 543.014216,300.283191 542.795947,303.475914 C542.601929,306.284883 542.283798,309.103837 541.804462,311.874288 C541.219557,315.216804 540.339347,318.455178 539.352142,321.693552 C538.182333,325.503992 536.945474,329.294459 535.691496,333.077793 C533.451739,339.842714 530.725513,346.674685 526.474255,352.431002 C523.805093,356.043145 520.969019,359.425606 517.847625,362.635448 C516.555129,363.966462 515.2341,365.264665 513.901659,366.558588 C510.56485,369.795536 507.103926,372.866999 503.397629,375.680247 C497.25185,380.345218 490.090336,383.771903 482.667753,385.900385 C474.79294,388.151554 466.852504,389.946213 458.733742,391.021867 C454.810602,391.539721 450.897447,391.902077 446.947201,392.164571 C441.135247,392.554032 435.373223,390.910592 430.529928,387.689337 C426.673837,385.125743 422.917608,382.228325 419.657835,378.930034 C418.080019,377.335099 416.582093,375.735884 415.109845,374.036808 C412.262359,370.748503 409.543265,367.210543 407.748607,363.226059 C405.892605,359.107474 403.921048,354.760635 402.822569,350.352451 C400.833893,342.362084 399.53997,334.01364 399.896619,325.755073 C400.064958,322.015963 400.398781,318.288266 400.883824,314.570556 C401.463022,310.14668 402.042221,305.727083 403.029425,301.374537 C403.848292,297.763821 404.717089,294.086055 406.011012,290.608013 C407.620213,286.272586 409.347822,281.881521 411.644642,277.847106 C413.516337,274.558801 415.477907,271.377491 417.617802,268.256097 C421.881899,262.031856 427.571167,256.699238 433.829646,252.497911 C436.916801,250.42364 440.126643,248.513427 443.453466,246.852869 C447.587743,244.79001 451.811896,242.734284 456.185841,241.246344 C459.663883,240.070828 463.163325,238.911005 466.729816,238.036502 Z M490.863551,257.94323 C490.26438,257.906139 489.66949,257.891873 489.074599,257.896153 C486.511005,259.531032 483.336827,260.165868 480.326708,259.178663 C479.708992,258.97466 479.104115,258.777789 478.492105,258.610878 C472.239332,259.715063 466.062169,261.680914 460.1475,263.942069 C454.809175,266.385829 449.691973,269.127748 444.777348,272.367549 C441.995485,274.630131 439.359134,277.009694 437.039488,279.758746 C433.624216,284.490766 430.766743,289.555184 428.284465,294.827885 C426.910652,298.497092 425.702325,302.217656 424.773611,306.033802 C423.893401,309.638811 423.224327,313.25666 422.660821,316.91588 C422.285626,320.25697 421.9946,323.583793 421.830542,326.942001 C421.66363,330.305916 421.988894,333.695509 422.305599,337.045158 C422.676514,339.577367 423.115905,342.113856 423.847749,344.557616 C424.646644,347.205379 425.539693,349.778959 426.531178,352.342553 C427.536928,354.478169 428.688192,356.472551 430.053445,358.402736 C432.910918,361.890764 436.079389,365.097754 439.560284,367.975199 C440.916978,368.965257 442.310763,369.888265 443.788717,370.691439 C444.255214,370.836952 444.723137,370.963919 445.196767,371.075193 C449.642042,371.14367 454.093024,370.717118 458.511193,370.236354 C467.029402,368.814038 475.594688,367.197704 483.674931,364.08487 C486.971795,362.564118 490.043258,360.749487 492.982047,358.628138 C498.789722,353.766297 504.494681,348.573485 509.295179,342.698761 C511.530656,339.605899 513.390938,336.360392 514.975886,332.902322 C516.251264,329.468504 517.461018,326.026126 518.593735,322.539524 C520.321344,317.224025 522.068925,311.918512 523.017611,306.397584 C523.335742,303.415997 523.427045,300.462942 523.17311,297.465662 C522.57822,294.120293 521.635239,290.900465 520.408366,287.727714 C518.501007,283.572038 516.188494,279.688842 513.48224,275.995384 C509.547686,271.123556 505.003976,266.672575 500.122163,262.742301 C498.026492,261.221549 495.872332,259.862003 493.556965,258.713593 C492.671049,258.406874 491.783706,258.151514 490.863551,257.94323 Z" id="rocking-chair" fill="#000000" transform="translate(413.760576, 465.560629) rotate(2.000000) translate(-413.760576, -465.560629) "></path>
    </g>
</svg>